<?xml version="1.0" encoding="utf-8"?>
<!-- Generator: Adobe Illustrator 16.0.0, SVG Export Plug-In . SVG Version: 6.00 Build 0)  -->
<!DOCTYPE svg PUBLIC "-//W3C//DTD SVG 1.1//EN" "http://www.w3.org/Graphics/SVG/1.1/DTD/svg11.dtd">
<svg version="1.1" id="Layer_1" xmlns="http://www.w3.org/2000/svg" xmlns:xlink="http://www.w3.org/1999/xlink" x="0px" y="0px"
	 width="346px" height="143px" viewBox="0 0 346 143" enable-background="new 0 0 346 143" xml:space="preserve">
<g>
	<path fill="#FFFFFF" d="M7.074,121.102l0.971,0.945c-0.738,0.93-1.137,1.764-1.195,2.502h1.369v2.852H5.418v-2.166
		c0-0.896,0.131-1.654,0.392-2.271C6.072,122.344,6.493,121.724,7.074,121.102z M11.892,121.076l0.996,0.971
		c-0.755,0.789-1.17,1.631-1.245,2.527h1.344v2.801h-2.776v-2.651C10.211,123.463,10.771,122.246,11.892,121.076z"/>
	<path fill="#FFFFFF" d="M28.802,120.877l4.338,16.519h-2.123l-2.625-10.093l-4.52,10.703l-4.533-10.791l-2.661,10.181h-2.111
		l4.338-16.519l4.964,11.819L28.802,120.877z"/>
	<path fill="#FFFFFF" d="M34.708,129.373c0-2.289,0.863-4.25,2.589-5.883c1.726-1.635,3.801-2.451,6.224-2.451
		c2.365,0,4.402,0.823,6.112,2.469c1.709,1.646,2.564,3.602,2.564,5.865c0,2.396-0.844,4.422-2.533,6.076
		c-1.688,1.654-3.761,2.481-6.217,2.481c-2.423,0-4.486-0.833-6.187-2.5C35.559,133.764,34.708,131.744,34.708,129.373z
		 M49.895,129.473c0-1.75-0.631-3.223-1.892-4.421s-2.813-1.797-4.655-1.797c-1.751,0-3.251,0.609-4.5,1.828
		s-1.874,2.682-1.874,4.39c0,1.732,0.641,3.197,1.923,4.396c1.282,1.197,2.853,1.796,4.711,1.796c1.709,0,3.185-0.611,4.425-1.834
		C49.274,132.608,49.895,131.155,49.895,129.473z"/>
	<path fill="#FFFFFF" d="M55.359,121.537h3.436c1.709,0,3.102,0.425,4.176,1.275c1.075,0.85,1.612,1.939,1.612,3.267
		c0,1.062-0.348,1.999-1.043,2.813s-1.779,1.386-3.252,1.718l4.607,6.786H62.41l-4.399-6.522h-0.485v6.522h-2.166V121.537z
		 M57.525,123.454v5.526c3.195,0.066,4.792-0.858,4.792-2.775c0-0.672-0.187-1.223-0.561-1.649
		c-0.373-0.427-0.871-0.718-1.494-0.872C59.642,123.531,58.729,123.454,57.525,123.454z"/>
	<path fill="#FFFFFF" d="M67.596,121.537h8.788v2.166h-6.647v3.958h6.647v2.142h-6.647v5.451h6.647v2.142h-8.788V121.537z"/>
	<path fill="#FFFFFF" d="M84.998,121.537h9.697v2.166H90.91v13.692H88.77v-13.692h-3.772V121.537z"/>
	<path fill="#FFFFFF" d="M97.209,121.537h2.166v6.1h7.581v-6.1h2.141v15.858h-2.141v-7.618h-7.581v7.618h-2.166V121.537z"/>
	<path fill="#FFFFFF" d="M118.451,120.928l7.487,16.468h-2.27l-1.84-4.058h-6.729l-1.82,4.058h-2.253L118.451,120.928z
		 M118.445,125.877l-2.537,5.656h5.102L118.445,125.877z"/>
	<path fill="#FFFFFF" d="M127.806,120.902l11.726,12.053v-11.418h2.166v16.593l-11.726-11.999v11.265h-2.166V120.902z"/>
	<path fill="#F5901E" d="M155.801,121.051h3.485v11.577c0,1.502-0.415,2.71-1.245,3.622c-0.83,0.913-1.917,1.369-3.261,1.369
		c-0.971,0-1.84-0.285-2.608-0.858s-1.359-1.448-1.774-2.626l2.564-1.942v0.05c0.017,0.008,0.1,0.191,0.249,0.548
		s0.338,0.679,0.566,0.964c0.228,0.287,0.475,0.43,0.741,0.43c0.39,0,0.701-0.162,0.934-0.484c0.232-0.324,0.348-0.756,0.348-1.295
		V121.051z"/>
	<path fill="#F5901E" d="M162.598,121.051h3.473v9.996c0,0.93,0.257,1.677,0.772,2.24c0.514,0.564,1.19,0.848,2.029,0.848
		c0.962,0,1.709-0.285,2.241-0.854c0.531-0.568,0.796-1.371,0.796-2.408v-9.822h3.461v10.582c0,0.929-0.241,1.894-0.723,2.894
		c-0.48,1-1.222,1.766-2.222,2.296c-1,0.531-2.118,0.797-3.354,0.797c-2.241,0-3.879-0.624-4.917-1.873
		c-1.037-1.249-1.556-2.563-1.556-3.939V121.051z"/>
	<path fill="#F5901E" d="M187.953,122.533l-2.19,2.402c-1.153-0.681-1.983-1.021-2.489-1.021c-0.391,0-0.727,0.148-1.008,0.442
		c-0.283,0.294-0.424,0.646-0.424,1.052c0,0.805,0.73,1.502,2.191,2.091c1.07,0.456,1.879,0.87,2.427,1.239s1.006,0.882,1.376,1.537
		c0.369,0.656,0.553,1.365,0.553,2.129c0,1.402-0.566,2.622-1.699,3.659c-1.132,1.038-2.471,1.556-4.014,1.556
		c-1.693,0-3.365-0.797-5.017-2.39l2.315-2.701c1.037,1.071,2.008,1.606,2.912,1.606c0.424,0,0.83-0.189,1.221-0.565
		c0.39-0.376,0.585-0.772,0.585-1.187c0-0.852-0.9-1.604-2.701-2.254c-1.029-0.375-1.759-0.727-2.19-1.055s-0.795-0.805-1.09-1.432
		s-0.441-1.268-0.441-1.924c0-1.451,0.473-2.63,1.419-3.535c0.946-0.904,2.183-1.355,3.71-1.355
		C185.207,120.828,186.726,121.396,187.953,122.533z"/>
	<path fill="#F5901E" d="M189.795,121.051h10.992v3.474h-3.747v12.871h-3.522v-12.871h-3.723V121.051z"/>
	<path fill="#FFFFFF" d="M215.83,120.928l7.488,16.468h-2.271l-1.841-4.058h-6.729l-1.82,4.058h-2.253L215.83,120.928z
		 M215.824,125.877l-2.537,5.656h5.102L215.824,125.877z"/>
	<path fill="#FFFFFF" d="M242.027,123.305l-1.756,1.406c-0.463-0.48-0.884-0.84-1.26-1.076c-0.377-0.236-0.922-0.355-1.634-0.355
		c-0.778,0-1.409,0.176-1.894,0.527s-0.727,0.805-0.727,1.359c0,0.48,0.211,0.904,0.635,1.272c0.422,0.368,1.143,0.771,2.162,1.208
		c1.019,0.438,1.812,0.846,2.379,1.223c0.568,0.378,1.033,0.795,1.398,1.25c0.364,0.457,0.635,0.938,0.813,1.443
		s0.268,1.041,0.268,1.604c0,1.318-0.479,2.442-1.438,3.37c-0.958,0.93-2.117,1.394-3.479,1.394c-1.328,0-2.5-0.362-3.517-1.089
		s-1.799-1.815-2.347-3.268l2.166-0.61c0.789,1.784,1.996,2.677,3.623,2.677c0.787,0,1.443-0.236,1.967-0.707
		c0.521-0.473,0.783-1.068,0.783-1.787c0-0.431-0.137-0.863-0.41-1.297c-0.275-0.436-0.615-0.793-1.022-1.074
		s-1.054-0.604-1.942-0.968s-1.571-0.698-2.051-1.001c-0.479-0.303-0.893-0.663-1.242-1.082c-0.35-0.418-0.605-0.835-0.769-1.25
		c-0.162-0.414-0.243-0.857-0.243-1.33c0-1.137,0.456-2.105,1.369-2.905c0.912-0.8,2.021-1.2,3.323-1.2
		c0.863,0,1.739,0.187,2.626,0.561C240.699,121.973,241.438,122.541,242.027,123.305z"/>
	<path fill="#FFFFFF" d="M244.118,121.537h9.696v2.166h-3.783v13.692h-2.141v-13.692h-3.772V121.537z"/>
	<path fill="#FFFFFF" d="M256.18,121.563h2.166v9.746c0,1.443,0.347,2.561,1.039,3.349c0.693,0.788,1.675,1.183,2.944,1.183
		c1.261,0,2.243-0.363,2.944-1.09c0.701-0.726,1.052-1.748,1.052-3.068v-10.119h2.165v9.971c0,1.941-0.553,3.493-1.661,4.654
		c-1.108,1.162-2.583,1.743-4.425,1.743c-1.885,0-3.393-0.589-4.525-1.768s-1.699-2.917-1.699-5.216V121.563z"/>
	<path fill="#FFFFFF" d="M271.678,121.537h3.846c3.046,0,5.312,0.805,6.797,2.414c1.485,1.611,2.229,3.449,2.229,5.516
		c0,2.082-0.768,3.925-2.303,5.526s-3.768,2.402-6.697,2.402h-3.871V121.537z M273.844,123.653v11.601h0.124
		c1.61,0,2.821-0.072,3.635-0.217c0.813-0.146,1.585-0.463,2.315-0.953c0.73-0.489,1.311-1.139,1.742-1.947
		c0.432-0.81,0.648-1.699,0.648-2.67c0-1.221-0.346-2.324-1.033-3.312c-0.689-0.987-1.514-1.651-2.472-1.991
		c-0.958-0.341-2.247-0.511-3.864-0.511H273.844z"/>
	<path fill="#FFFFFF" d="M287.014,121.537h2.141v15.858h-2.141V121.537z"/>
	<path fill="#FFFFFF" d="M291.979,129.373c0-2.289,0.863-4.25,2.589-5.883c1.727-1.635,3.801-2.451,6.225-2.451
		c2.365,0,4.402,0.823,6.111,2.469c1.71,1.646,2.564,3.602,2.564,5.865c0,2.396-0.844,4.422-2.533,6.076
		c-1.688,1.654-3.762,2.481-6.217,2.481c-2.424,0-4.486-0.833-6.188-2.5S291.979,131.744,291.979,129.373z M307.166,129.473
		c0-1.75-0.631-3.223-1.893-4.421c-1.261-1.198-2.813-1.797-4.654-1.797c-1.752,0-3.252,0.609-4.5,1.828
		c-1.25,1.219-1.874,2.682-1.874,4.39c0,1.732,0.642,3.197,1.923,4.396c1.283,1.197,2.854,1.796,4.712,1.796
		c1.71,0,3.185-0.611,4.425-1.834S307.166,131.155,307.166,129.473z"/>
	<path fill="#FFFFFF" d="M311.809,121.264h2.801v2.539c0,1.328-0.568,2.576-1.705,3.746l-0.996-0.982
		c0.781-0.697,1.208-1.523,1.283-2.478h-1.383V121.264z M316.602,121.264h2.775v2.775c0,1.253-0.543,2.415-1.63,3.485l-0.983-0.934
		c0.771-0.788,1.187-1.622,1.244-2.502h-1.406V121.264z"/>
</g>
<path fill="#F5901E" d="M184.814,25.823c0-5.461,1.806-9.969,5.418-13.524c3.611-3.556,7.895-5.333,12.848-5.333
	c5.479,0,10.01,1.787,13.594,5.361c3.583,3.574,5.376,8.092,5.376,13.552c0,5.423-1.772,9.926-5.319,13.51
	c-3.548,3.584-8.013,5.375-13.396,5.375c-5.386,0-9.819-1.781-13.298-5.347C186.555,35.853,184.814,31.321,184.814,25.823
	 M203.446,14.34c-3.097-0.058-5.592,1.013-7.486,3.208c-1.896,2.195-2.842,5.029-2.842,8.5c0,3.284,0.965,6.004,2.897,8.162
	s4.372,3.236,7.318,3.236c3.096,0,5.596-1.064,7.5-3.194c1.905-2.129,2.856-4.938,2.856-8.429c0-3.435-0.934-6.192-2.801-8.275
	C209.024,15.466,206.542,14.396,203.446,14.34"/>
<path fill="#F5901E" d="M227.481,25.823c0-5.461,1.807-9.969,5.419-13.524c3.611-3.556,7.894-5.333,12.847-5.333
	c5.479,0,10.009,1.787,13.594,5.361c3.583,3.574,5.376,8.092,5.376,13.552c0,5.423-1.772,9.926-5.319,13.51
	c-3.548,3.584-8.012,5.375-13.396,5.375c-5.386,0-9.818-1.781-13.298-5.347C229.222,35.853,227.481,31.321,227.481,25.823
	 M246.113,14.34c-3.097-0.058-5.592,1.013-7.486,3.208s-2.842,5.029-2.842,8.5c0,3.284,0.965,6.004,2.897,8.162
	s4.372,3.236,7.318,3.236c3.096,0,5.596-1.064,7.5-3.194c1.905-2.129,2.856-4.938,2.856-8.429c0-3.435-0.934-6.192-2.801-8.275
	C251.691,15.466,249.209,14.396,246.113,14.34"/>
<path fill="#F5901E" d="M292.103,10.709l-4.955,5.432c-2.607-1.538-4.484-2.308-5.628-2.308c-0.883,0-1.643,0.333-2.279,0.999
	c-0.639,0.666-0.957,1.459-0.957,2.377c0,1.819,1.65,3.397,4.953,4.729c2.421,1.031,4.25,1.967,5.487,2.801
	c1.239,0.836,2.274,1.994,3.11,3.476c0.835,1.483,1.253,3.087,1.253,4.813c0,3.17-1.28,5.929-3.843,8.273
	c-2.559,2.347-5.586,3.519-9.077,3.519c-3.826,0-7.607-1.801-11.341-5.403l5.235-6.107c2.345,2.42,4.54,3.631,6.585,3.631
	c0.957,0,1.877-0.427,2.758-1.277c0.883-0.852,1.324-1.745,1.324-2.682c0-1.928-2.037-3.627-6.109-5.098
	c-2.325-0.85-3.977-1.645-4.952-2.385c-0.976-0.741-1.797-1.82-2.464-3.237c-0.665-1.416-0.997-2.864-0.997-4.348
	c0-3.283,1.069-5.948,3.208-7.993c2.14-2.045,4.936-3.068,8.387-3.068C285.892,6.853,289.324,8.138,292.103,10.709"/>
<polygon fill="#F5901E" points="298.855,7.36 319.656,7.36 319.656,14.678 306.82,14.678 306.82,22.136 319.656,22.136 
	319.656,29.341 306.82,29.341 306.82,36.995 319.656,36.995 319.656,44.314 298.855,44.314 "/>
<polygon fill="#696A6E" points="4.596,7.36 12.56,7.36 12.56,21.601 25.647,21.601 25.647,7.36 33.613,7.36 33.613,44.314 
	25.647,44.314 25.647,29.622 12.56,29.622 12.56,44.314 4.596,44.314 "/>
<path fill="#696A6E" d="M54.098,7.36h6.17l15.055,36.954h-8.015l-2.958-7.263H50.167l-2.897,7.263h-7.973L54.098,7.36z
	 M57.184,19.462L52.84,30.354h8.781L57.184,19.462z"/>
<polygon fill="#696A6E" points="105.353,7.36 113.149,7.36 113.149,44.314 105.391,44.314 88.494,20.391 88.494,44.314 
	80.529,44.314 80.529,7.36 88.405,7.36 105.353,31.114 "/>
<path fill="#696A6E" d="M151.989,15.381l-5.291,4.954c-1.107-1.914-2.477-3.346-4.109-4.293c-1.633-0.947-3.34-1.422-5.123-1.422
	c-2.889,0-5.399,1.099-7.528,3.293c-2.13,2.197-3.194,4.785-3.194,7.769c0,3.171,1.064,5.858,3.194,8.063
	c2.129,2.205,4.695,3.307,7.697,3.307c1.633,0,3.204-0.412,4.715-1.238c1.51-0.824,2.725-2.373,3.644-4.644h-8.753v-7.205h17.056
	v4.784c0,2.459-0.845,5.1-2.533,7.924c-1.689,2.824-3.912,4.888-6.67,6.19c-2.758,1.306-5.545,1.957-8.359,1.957
	c-5.104,0-9.41-1.848-12.918-5.544c-3.51-3.697-5.264-8.266-5.264-13.707c0-5.16,1.806-9.57,5.418-13.229
	c3.612-3.658,7.96-5.488,13.045-5.488C143.508,6.853,148.499,9.696,151.989,15.381"/>
<polygon fill="#F5901E" points="141.871,54.983 152.634,54.983 160.506,80.171 168.383,54.983 178.763,54.983 184.173,97.005 
	175.545,97.005 171.836,67.434 162.587,97.005 158.475,97.005 148.984,67.178 145.481,97.005 136.71,97.005 "/>
<polygon fill="#F5901E" points="190.831,54.983 214.482,54.983 214.482,63.306 199.888,63.306 199.888,71.787 214.482,71.787 
	214.482,79.978 199.888,79.978 199.888,88.683 214.482,88.683 214.482,97.005 190.831,97.005 "/>
<path fill="#F5901E" d="M221.971,54.982h14.339c6.125,0,11.053,1.933,14.786,5.793c3.733,3.863,5.602,8.951,5.602,15.268
	c0,6.337-1.926,11.413-5.778,15.233c-3.851,3.82-8.976,5.729-15.377,5.729h-13.571V54.982z M231.093,62.921v25.955h3.584
	c3.714,0,6.764-1.014,9.154-3.041c2.39-2.027,3.585-5.408,3.585-10.144c0-2.754-0.576-5.19-1.729-7.314
	c-1.152-2.122-2.822-3.563-5.01-4.32c-2.187-0.757-4.272-1.136-6.256-1.136H231.093z"/>
<rect x="263.322" y="54.983" fill="#F5901E" width="9.057" height="42.021"/>
<path fill="#F5901E" d="M295.386,54.983h7.017l17.119,42.021h-9.113l-3.364-8.258h-16.127l-3.295,8.258h-9.065L295.386,54.983z
	 M298.896,68.746l-4.94,12.384h9.985L298.896,68.746z"/>
<path fill="#F5901E" d="M61.394,88.79c-0.27,0-0.521-0.023-0.761-0.061c-2.948-0.508-3.671-4.084-4.677-9.031
	c-0.14-0.688-0.28-1.396-0.438-2.124c-0.341-1.592-0.555-2.834-0.737-3.92c-0.373-2.189-0.647-3.771-1.652-6.309
	c-0.032-0.047-1.755-2.617-1.02-4.244c0.323-0.721,1.086-1.162,2.273-1.311c0.548-0.07,1.07-0.143,1.562-0.217
	c1.143-0.164,2.131-0.305,2.983-0.305c0.332,0,0.639,0.021,0.933,0.07c2.073,0.354,3.342,2.014,4.178,9.752
	c0.198,2.711,0.474,5.121,0.723,7.244c0.556,4.841,0.929,8.044-0.295,9.489c-0.464,0.545-1.161,0.84-2.141,0.889
	C61.989,88.761,61.685,88.79,61.394,88.79"/>
<path fill="#F5901E" d="M70.669,87.401c-0.246,0-0.476-0.023-0.692-0.059c-3.564-0.611-3.93-6.125-4.082-8.482
	c-0.028-0.355-0.043-0.642-0.066-0.825l-0.085-0.625c-0.242-1.791-0.641-4.783-1.38-12.547c0.014-6.023,4.049-6.676,5.784-6.676
	c0.436,0,0.711,0.043,0.711,0.043c4.29,0.736,4.361,7.281,4.437,14.213c0.009,1.141,0.023,2.291,0.058,3.43
	c0.008,1.635,0.134,3.05,0.251,4.3c0.346,3.879,0.522,5.83-3.305,6.969C71.726,87.312,71.177,87.401,70.669,87.401"/>
<path fill="#F5901E" d="M81.526,85.704c-0.365,0-0.723-0.031-1.071-0.088c-1.474-0.254-2.606-1.01-3.016-2.014
	c-0.929-2.314-1.012-7.956-1.071-12.077c-0.029-2.039-0.055-3.652-0.173-4.322l-0.101-0.5c-0.404-2.018-1.49-7.385,0.8-10.176
	c0.953-1.166,2.392-1.75,4.294-1.75c0.357,0,0.736,0.021,1.139,0.061c0.118,0.014,0.236,0.029,0.351,0.055
	c1.948,0.332,3.322,1.152,4.083,2.434c0.94,1.586,0.913,3.855-0.072,6.74c-0.713,5.35-0.731,11.244-0.055,15.78
	c0.239,1.689-0.111,3.133-1.008,4.168C84.692,85.085,83.199,85.704,81.526,85.704"/>
<path fill="#F5901E" d="M88.38,63.438c-0.065-0.228-0.17-0.422-0.303-0.586c-0.115,0.47-0.247,0.951-0.418,1.459
	c-0.68,5.227-0.696,10.973-0.033,15.392c0.384,2.754-0.632,4.398-1.554,5.285c-1.406,1.363-3.623,1.982-5.788,1.605
	c-1.703-0.289-3.032-1.164-3.642-2.355c-0.31,1.732-1.327,3.047-4.055,3.861c-1.003,0.293-1.937,0.375-2.782,0.23
	c-1.75-0.301-2.852-1.471-3.561-2.928c-0.095,1.309-0.386,2.332-1.015,3.068c-0.64,0.762-1.557,1.164-2.799,1.242
	c-0.719,0.102-1.373,0.105-1.966,0.002c-3.619-0.621-4.444-4.672-5.481-9.801c-0.144-0.688-0.286-1.396-0.439-2.13
	c-0.348-1.617-0.562-2.865-0.747-3.973c-0.374-2.178-0.624-3.629-1.57-6.012c-0.117-0.182-0.505-0.529-0.745-1.035l0.15,29.19
	c0.1,0.186,0.192,0.377,0.297,0.561h38.514c0.339-0.857,0.707-1.887,0.897-2.889c0.165-0.881-0.163-1.592,0.009-2.367L89.545,67.27
	c0-0.004,0.003-0.008,0.003-0.012C89.126,65.549,88.82,64.166,88.38,63.438"/>
<path fill="#F5901E" d="M112.34,55.67c-5.065-0.355-9.543,1.664-10.739,2.561c-1.195,0.898-3.505,2.161-5.095,3.639
	c-1.588,1.477-2.931,2.352-3.916,3.184c-0.985,0.83-2.302,2.498-2.947,2.445c-0.197-0.014-0.4-0.082-0.613-0.222l0.525,29.301
	c1.608-1.447,1.898-2.162,2.383-2.842c1.338-1.869,2.73-4.322,3.605-6.334c0.861-1.98,2.282-5.688,2.855-7.238
	c0.658-1.782,1.381-5.333,2.536-6.929c1.156-1.596,3.426-4.838,4.899-6.533c1.472-1.691,2.945-2.859,4.424-3.789
	c1.254-0.789,3.69-1.756,4.513-2.516C115.592,59.637,117.403,56.026,112.34,55.67"/>
<path fill="#F5901E" d="M52.228,67.799c-0.3-1.059-0.727-2.976-1.44-3.67c-2.048-1.99-3.875-3.836-4.982-4.861
	c-1.101-1.02-3.133-3.637-5.579-5.664c-2.209-1.832-4.982-2.082-7.013-0.375c-1.729,1.453,0.194,5.41,2.153,7.597
	c1.959,2.185,5.985,7.927,7.794,10.188c0.784,0.979,2.25,2.432,2.756,3.848c0.709,1.977,1.965,2.775,2.178,3.629
	c0.378,1.507,2.375,9.778,2.977,12.491c0.147,0.656,0.497,1.771,0.962,3.129L52.228,67.799z"/>
<path fill="#F5901E" d="M59.341,89.954c-3.345-0.678-4.136-4.504-5.119-9.348c-0.134-0.66-0.27-1.338-0.419-2.043
	c-0.333-1.548-0.538-2.745-0.715-3.808c-0.018-0.105-0.035-0.195-0.054-0.299h-7.229c0.037,0.133,0.089,0.26,0.111,0.404
	c0.685,4.337,1.214,14.382,5.382,21.653h8.043V89.954z"/>
<path fill="#F5901E" d="M327.86,15.964V8.593h-2.798V7.32h7.062v1.272h-2.82v7.371H327.86z M333.101,15.964V7.32h2.128l2.151,6.903
	h0.053l2.095-6.903h2.078v8.644h-1.326V8.71h-0.043l-2.185,7.254h-1.298l-2.286-7.371h-0.042v7.371H333.101z"/>
<polygon fill="#F5901E" points="161.158,7.388 169.065,7.388 169.065,36.376 179.959,36.376 179.959,44.342 161.158,44.342 "/>
</svg>
